<?xml version="1.0" encoding="utf-8"?>
<!-- Generator: Adobe Illustrator 21.0.0, SVG Export Plug-In . SVG Version: 6.00 Build 0)  -->
<svg version="1.1" id="Capa_1" xmlns="http://www.w3.org/2000/svg" xmlns:xlink="http://www.w3.org/1999/xlink" x="0px" y="0px"
	 viewBox="0 0 240 234" style="enable-background:new 0 0 240 234;" xml:space="preserve">
<style type="text/css">
	.st0{fill:#333333;}
</style>
<g>
	<path class="st0" d="M131.6,195.7c-7.1-23.3-13.8-46.7-20.7-70.1c-8.2-27.7-16.4-55.4-24.5-83.1C81.4,26,84.2,29,67.8,28.7
		c-1.3,0-2.6,0-4.8,0c-4.7,0.5-11.2-2.1-15.4,1.1c-3.9,3.1-2.1,9.9-3.5,14.9C29.8,94.1,15.8,143.5,1.6,192.9
		c-2.8,9.9-2.9,10,7.8,10.1c16.6,0.1,16.7,0.1,21.2-16.2c2.3-8.2,4.3-16.4,6.2-24.7c1.2-5.4,4-8.4,9.7-8.4c13,0,25.9,0.1,38.9-0.2
		c4.8-0.1,5.5,3.3,6.5,6.6c3.3,11.7,6.8,23.4,9.5,35.3c1.3,5.8,3.8,8.1,9.7,7.7c5-0.4,10.1-0.4,15.1,0
		C132.2,203.5,133.3,201.3,131.6,195.7z M78.1,127.9c-8.4,0.1-16.9-0.2-25.3,0.1c-5.4,0.2-6.8-1.3-5.3-6.8
		C53.2,99.7,58.7,78,64.7,54.9c6.3,23.9,12.3,46.5,18.2,69.1C84,128.6,80.5,127.8,78.1,127.9z"/>
	<path class="st0" d="M185.8,144.2c14.6,1.3,29,0.3,43.5-0.1c7.9-0.2,11.3-2.5,10.6-10.5c-0.3-2.6,0-5.3,0-7.9
		c0.6-17.8-3.7-33.8-18.4-45.2C201.4,64.8,171,70.2,154,92.1c-17.5,22.6-18.4,69.5-1.5,92.5c14,19.1,33.9,22.9,55.8,20.8
		c5.2-0.5,10.3-2.4,15.5-3.2c6.7-1.1,8.1-5,8-11.2c-0.3-14.7,0-14.2-13.8-11.8c-14.8,2.6-29.7,3.6-41-9.6c-1.2-1.4-2.5-2.8-3.3-4.4
		c-2.9-5.8-6.1-12.5-3.1-18.2C173.3,141.4,180.6,143.8,185.8,144.2z M171,113.9c0.8-2.5,1.8-5,3-7.3c4.8-9,13.1-13,22.2-11.1
		c9.7,2,15.1,8.3,16.5,18.6c0.9,6.4-1,9.5-7.9,8.9c-4.4-0.4-8.9-0.1-13.4-0.1c-4.7,0-9.5,0.1-14.2,0
		C169.3,122.7,168.5,121.6,171,113.9z"/>
</g>
</svg>
