<?xml version="1.0" encoding="utf-8"?>
<!-- Generator: Adobe Illustrator 21.0.0, SVG Export Plug-In . SVG Version: 6.00 Build 0)  -->
<svg version="1.1" id="Calque_1" xmlns="http://www.w3.org/2000/svg" xmlns:xlink="http://www.w3.org/1999/xlink" x="0px" y="0px"
	 viewBox="0 0 256 256" style="enable-background:new 0 0 256 256;" xml:space="preserve">
<style type="text/css">
	.st0{fill:#333333;}
</style>
<g>
	<path class="st0" d="M155.7,108.9c3.9-2.9,5.9-7.6,5.9-14.1c0-3.6-0.7-6.6-2-8.9c-1.3-2.3-3-4.1-5.2-5.4c-2.2-1.3-4.7-2.2-7.5-2.7
		s-5.8-0.8-8.8-0.8h-31.9v36.3h34.5C146.8,113.2,151.7,111.8,155.7,108.9z"/>
	<path class="st0" d="M161.1,141.6c-4.5-3.4-10.4-5.1-17.8-5.1h-37.1V179h36.5c3.3,0,6.5-0.3,9.6-1s5.7-1.7,8-3.3
		c2.3-1.5,4.2-3.6,5.5-6.2s2.1-5.9,2.1-10C167.8,150.6,165.6,145,161.1,141.6z"/>
	<path class="st0" d="M223,0H33C14.8,0,0,14.8,0,33v190c0,18.2,14.8,33,33,33h190c18.2,0,33-14.8,33-33V33C256,14.8,241.2,0,223,0z
		 M197.3,180.9c-3,5.7-7.1,10.4-12.3,14c-5.1,3.6-11,6.3-17.6,8c-6.6,1.7-13.4,2.6-20.3,2.6H72.1v-155H145c7.4,0,14.1,0.7,20.2,2
		c6.1,1.3,11.3,3.4,15.6,6.4s7.7,6.9,10.1,11.8c2.4,4.9,3.6,11,3.6,18.2c0,7.8-1.8,14.3-5.3,19.5c-3.5,5.2-8.8,9.5-15.7,12.8
		c9.6,2.7,16.7,7.6,21.4,14.4c4.7,6.9,7.1,15.2,7.1,24.9C201.9,168.4,200.4,175.1,197.3,180.9z"/>
</g>
</svg>
