<?xml version="1.0" encoding="utf-8"?>
<!-- Generator: Adobe Illustrator 21.0.0, SVG Export Plug-In . SVG Version: 6.00 Build 0)  -->
<svg version="1.1" id="Capa_1" xmlns="http://www.w3.org/2000/svg" xmlns:xlink="http://www.w3.org/1999/xlink" x="0px" y="0px"
	 viewBox="0 0 512 512" style="enable-background:new 0 0 512 512;" xml:space="preserve">
<style type="text/css">
	.st0{fill:#333333;}
	.st1{fill:#333333;enable-background:new    ;}
</style>
<g>
	<g>
		<path class="st0" d="M432,512H80c-35.3,0-64-28.7-64-64V224l240,112l240-112v224C496,483.3,467.3,512,432,512z"/>
		<path class="st1" d="M400,0H112C94.3,0,80,14.3,80,32v176l176,80l176-80V32C432,14.3,417.7,0,400,0z M336,160H176
			c-8.8,0-16-7.2-16-16s7.2-16,16-16h160c8.8,0,16,7.2,16,16S344.8,160,336,160z M336,96H176c-8.8,0-16-7.2-16-16s7.2-16,16-16h160
			c8.8,0,16,7.2,16,16S344.8,96,336,96z"/>
	</g>
</g>
</svg>
