<?xml version="1.0" encoding="utf-8"?>
<!-- Generator: Adobe Illustrator 21.0.0, SVG Export Plug-In . SVG Version: 6.00 Build 0)  -->
<svg version="1.1"
	 id="svg2" inkscape:version="0.92.2 (5c3e80d, 2017-08-06)" sodipodi:docname="Microsoft_PowerPoint_2013_logo.svg" xmlns:cc="http://creativecommons.org/ns#" xmlns:dc="http://purl.org/dc/elements/1.1/" xmlns:inkscape="http://www.inkscape.org/namespaces/inkscape" xmlns:rdf="http://www.w3.org/1999/02/22-rdf-syntax-ns#" xmlns:sodipodi="http://sodipodi.sourceforge.net/DTD/sodipodi-0.dtd" xmlns:svg="http://www.w3.org/2000/svg"
	 xmlns="http://www.w3.org/2000/svg" xmlns:xlink="http://www.w3.org/1999/xlink" x="0px" y="0px" viewBox="0 0 110 107.5"
	 style="enable-background:new 0 0 110 107.5;" xml:space="preserve">
<style type="text/css">
	.st0{clip-path:url(#SVGID_2_);}
	.st1{fill:#333333;}
	.st2{fill:none;}
</style>
<sodipodi:namedview  bordercolor="#666666" borderopacity="1" fit-margin-bottom="0" fit-margin-left="0" fit-margin-right="0" fit-margin-top="0" gridtolerance="10" guidetolerance="10" id="namedview122" inkscape:current-layer="svg2" inkscape:cx="68.378088" inkscape:cy="84.987245" inkscape:pageopacity="0" inkscape:pageshadow="2" inkscape:window-height="706" inkscape:window-maximized="1" inkscape:window-width="1360" inkscape:window-x="-8" inkscape:window-y="-8" inkscape:zoom="4" objecttolerance="10" pagecolor="#ffffff" showgrid="false">
	</sodipodi:namedview>
<g>
	<defs>
		<rect id="SVGID_1_" x="-20.8" y="-9.5" width="151" height="126.2"/>
	</defs>
	<clipPath id="SVGID_2_">
		<use xlink:href="#SVGID_1_"  style="overflow:visible;"/>
	</clipPath>
	<g id="g24" transform="translate(161.7363,148.416)" class="st0">
		<path id="path26" inkscape:connector-curvature="0" class="st1" d="M-85.2-123.5v15.3h14.9C-70.3-116.7-77-123.5-85.2-123.5"/>
	</g>
	<g class="st0">
		<path class="st2" d="M62.9,32.4c2.7-3.3,6.8-5.4,11.3-5.4v15.3h14.9c0,8.5-6.7,15.3-14.9,15.3c-4.5,0-8.6-2.1-11.3-5.4v12h33.9
			v4.3H62.9V76h33.9v4.3H62.9v9.3h43.5l0-74.3H62.9V32.4z"/>
		<path class="st1" d="M26.6,42.5v10.6c2.5,0.2,5,0.7,6.5-2c1.2-2,1.1-5.7-0.3-7.3C31.1,41.8,28.9,42.1,26.6,42.5z"/>
		<path class="st1" d="M106.4,11.7H62.9V0L0,11.2v85.1l62.9,11.2V93.4h43.5c2,0,3.6-1.7,3.6-3.7V15.4
			C110,13.3,108.4,11.7,106.4,11.7z M40.8,51.3c-1,4.2-3.6,7.2-7.7,8.2c-2.1,0.5-4.3,0.4-6.6,0.6v12h-6.3V35.9
			c4.9,0,9.7-0.1,14.5,0.1c1.3,0.1,2.7,1,3.7,2C41.9,41.8,41.9,46.6,40.8,51.3z M106.4,89.6H62.9v-9.3h33.9V76H62.9v-7.3h33.9v-4.3
			H62.9v-12c2.7,3.3,6.8,5.4,11.3,5.4c8.2,0,14.9-6.9,14.9-15.3H74.2V27c-4.5,0-8.6,2.1-11.3,5.4v-17h43.5L106.4,89.6z"/>
	</g>
</g>
</svg>
