<svg xmlns="http://www.w3.org/2000/svg" viewBox="0 0 443.63 444.48"><defs><style>.cls-1{fill:#333;}.cls-2{fill:#383838;}.cls-3{fill:none;}</style></defs><title>pkofficeFichier 4</title><g id="Calque_2" data-name="Calque 2"><g id="Calque_1-2" data-name="Calque 1"><path class="cls-1" d="M214,351.46a36.38,36.38,0,0,0,15.19-16.67c2.37-5.07,3.44-5.3,8.38-2.66,6.6,3.52,13,7.46,19.49,11.11,1.83,1,3.54,1.78,5.6.87,1.24-.27,2.47-.61,3.68-1a31.77,31.77,0,0,1-6.13.84,234.86,234.86,0,0,0-21.7-12.13,22.53,22.53,0,0,0-15-1.82c-7.78,1.65-12.05,7.2-13.93,14.68-1.35,5.36-1.75,10.85-2.25,16.33A14.4,14.4,0,0,1,214,351.46Z"/><path class="cls-2" d="M313.56,112.21c.7-3.76,1.21-7.57,2.2-11.25.84-3.09-.11-3.84-3.06-3.59Q281.88,99.9,251,102.26c-2.25.17-3.2,1.07-3.45,3.3-1.26,11.07-2.62,22.13-4,33.18-.27,2.15.26,3.3,2.63,3.85,13.13,3.06,22.9,11,30.74,21.64a5.24,5.24,0,0,0,5.87,2.37c10.5-1.7,21-3.05,31.57-4.6,7.48-1.1,14.94-2.32,23.22-3.61C315.8,148.14,309.26,135.23,313.56,112.21Z"/><path class="cls-2" d="M350.5,218.35c-19.67,4.29-38.32,8.41-57,12.39-2.72.58-3.16,2.46-3.79,4.57-3.7,12.44-9.75,23.31-20.93,30.63-1.84,1.2-2.52,2.19-1.31,4.38,5.19,9.48,10.23,19.05,15.27,28.62.9,1.71,1.84,2.4,3.92,1.82q30-8.37,60.13-16.54c2.45-.67,2.92-1.65,1.5-3.82-2.46-3.76-4.73-7.63-7.07-11.47C329.84,250.28,332.81,232.5,350.5,218.35Z"/><path class="cls-3" d="M363.05,166.56c-.64-4.45-2.28-6-6.84-5.18-12,2.08-24,3.78-36,5.65-17.06,2.66-33.89,6-51.42,1.63-15.23-3.83-26.53-15.06-28.46-30.77-1.38-11.23,2.09-21.77,3.9-32.55,1.26-7.47,1.39-7.37,9-8q30.38-2.41,60.76-4.94c1.49-.12,3.35.11,4-1.51.79-2.12-1.34-2.77-2.62-3.66q-12.89-9-25.84-17.95c-3.7-2.92-7.62-.64-11.48-.61-17,.17-33.82,2.84-50.77,2.15l.5-.14c1.56-.51,4-.59,2.73-3.43-1.54-1.66-1.4-4.78-5.06-4.56-22.75,1.33-45.51,2.46-68.26,3.68-1.09.06-2.41-.2-2.73,1.45-.66,3.42,6,11.95,9.58,12.34,10.14,1.09,18.94,4.84,25.58,12.89,3.27,1.39,4.82-1.26,6.41-3.07,4.16-4.74,8.43-9.39,12.42-14.28a11.31,11.31,0,0,1,9.6-4.56,19,19,0,0,0-12.42,8.37c-3.9,5.55-9.49,9.76-13.19,15.55-10.24,9-24.26,6.19-31.58-6.51-3.31-5.76-6.18-11.79-8.93-17.85-1.41-3.11-2.82-3.9-6-2.21a97.5,97.5,0,0,1-14.93,6.92c-7.37,2.44-10.06,6.69-9.87,14.63.21,8.7.17,17.67-3.27,26.07-1,2.46-2.18,4.41-5.07,4.86-6.73,1.05-13.44,2.21-20.16,3.33-1.41,2,.3,2.67,1.59,3.17,3.38,1.29,6.84,2.39,10.56,1.63-5.71,1.82-10.83-1.82-16.34-1.76-3.95-1.41-5.85.22-6.8,4.1a39.41,39.41,0,0,1-3.45,9.89c-6,10.74-4.66,20.32,2.2,30.44,5.79,8.54,6.47,18.66,4.38,28.9-1.63,8-7.45,12.78-13.06,17.72-2.32,2-3.3,3.94-2.51,7.28A149.85,149.85,0,0,1,73,247.29c.51,5.88,3.16,8.55,8.49,10.53,14.79,5.49,21.91,16.19,22.21,32,.12,6.54-1,12.95-2,19.36a8.84,8.84,0,0,0,2.33,8.15c4.43,4.74,8.45,9.86,12.69,14.78,5.69,6.6,5.57,6.39,12.88,1.19,3.77-2.69,4.71-5.45,3.84-10-5.9-30.91-11.48-61.89-17.17-92.84a86.7,86.7,0,0,1,4-47.18C133.29,148.62,168.9,140.84,195,167c24.68,24.72,31.25,67.08,15.25,98.31-12.8,25-39.61,32-62.94,16.61-1.06-.7-1.9-1.91-3.81-1.8q4.52,24.87,9,49.6a4.9,4.9,0,0,0,1.77,2.92c9.42,8.1,12.88,19.56,17.23,30.52.89,4.57,3.54,6.47,8.31,6.71a181.19,181.19,0,0,1,19.71,1.59c5.19.84,6.75-.75,7.37-6,0-.41.09-.82.13-1.24a13.55,13.55,0,0,0,.33,2.91c.55,2.41,2,3.74,4.26,2.65,5.1-2.41,10.82-3,15.83-5.55,2-.76,4-1.63,6-2.28q22.94-7.38,45.9-14.69c.77-.6.61-1.46.63-2.27.17-5.68-.33-6.1-5.68-4.41,1.75-.71,3.47-1.48,5.2-2.26,12.86-4,25.56-8.7,38.63-11.82,11.11-2.65,19.24-7.94,24.65-18,2.73-5.11,6.59-9.61,9.87-14.43.88-1.3,2.71-2.57,1.53-4.36-1.37-2.07-3.32-.47-5-.23a15.17,15.17,0,0,0-1.92.56c-19.9,5.54-39.82,11-59.68,16.68-2.84.81-4.51.6-6.08-2.2-3.6-6.38-7.69-12.48-11.38-18.82-8.75-15-8.7-31.92,1.05-43.63,7.72-9.28,18.46-15.26,29.76-18.3,21-5.66,42.54-9.63,63.87-14.22,3.09-.67,5.25-1.35,4.5-5.45C367,191.56,364.87,179.08,363.05,166.56Z"/><path class="cls-3" d="M313.56,112.21c.7-3.76,1.21-7.57,2.2-11.25.84-3.09-.11-3.84-3.06-3.59Q281.88,99.9,251,102.26c-2.25.17-3.2,1.07-3.45,3.3-1.26,11.07-2.62,22.13-4,33.18-.27,2.15.26,3.3,2.63,3.85,13.13,3.06,22.9,11,30.74,21.64a5.24,5.24,0,0,0,5.87,2.37c10.5-1.7,21-3.05,31.57-4.6,7.48-1.1,14.94-2.32,23.22-3.61C315.8,148.14,309.26,135.23,313.56,112.21Z"/><path class="cls-3" d="M350.5,218.35c-19.67,4.29-38.32,8.41-57,12.39-2.72.58-3.16,2.46-3.79,4.57-3.7,12.44-9.75,23.31-20.93,30.63-1.84,1.2-2.52,2.19-1.31,4.38,5.19,9.48,10.23,19.05,15.27,28.62.9,1.71,1.84,2.4,3.92,1.82q30-8.37,60.13-16.54c2.45-.67,2.92-1.65,1.5-3.82-2.46-3.76-4.73-7.63-7.07-11.47C329.84,250.28,332.81,232.5,350.5,218.35Z"/><path class="cls-1" d="M443.59,73.79a67.83,67.83,0,0,0-.7-11.45C436.44,24.91,406.8.08,368.62.07,271,0,173.33.2,75.69,0,29.81-.09-.72,36.35,0,75.31c.92,49,.22,98,.22,147q0,73.23,0,146.46A82.54,82.54,0,0,0,1,382.68c6.37,36.75,36.26,61.77,73.72,61.78q147.21.05,294.43,0a76.63,76.63,0,0,0,12.4-1.08c36.8-6,62-35.35,62.06-72.69Q443.68,222.25,443.59,73.79Zm-106,84.59c-8.28,1.29-15.74,2.51-23.22,3.61-10.52,1.55-21.07,2.9-31.57,4.6a5.24,5.24,0,0,1-5.87-2.37c-7.84-10.59-17.6-18.58-30.74-21.64-2.36-.55-2.89-1.7-2.63-3.85,1.37-11.05,2.72-22.11,4-33.18.25-2.23,1.2-3.13,3.45-3.3q30.84-2.36,61.67-4.89c2.95-.24,3.9.51,3.06,3.59-1,3.68-1.5,7.49-2.2,11.25C309.26,135.23,315.8,148.14,337.62,158.38Zm27.1,51.08C343.4,214,321.9,218,300.85,223.68c-11.3,3-22,9-29.76,18.3-9.76,11.72-9.81,28.61-1.05,43.63,3.69,6.33,7.78,12.44,11.38,18.82,1.58,2.8,3.24,3,6.08,2.2,19.87-5.66,39.78-11.14,59.68-16.68a15.17,15.17,0,0,1,1.92-.56c1.7-.24,3.65-1.84,5,.23,1.18,1.79-.65,3.06-1.53,4.36-3.28,4.82-7.13,9.33-9.87,14.43-5.4,10.1-13.54,15.39-24.65,18-13.07,3.12-25.77,7.81-38.63,11.82-1.73.78-3.46,1.55-5.2,2.26,5.36-1.7,5.85-1.27,5.68,4.41,0,.81.14,1.67-.63,2.27q-23,7.33-45.9,14.69c-2,.65-4,1.51-6,2.28-5,2.59-10.73,3.14-15.83,5.55-2.31,1.09-3.71-.24-4.26-2.65a13.55,13.55,0,0,1-.33-2.91c0,.41-.08.82-.13,1.24-.62,5.29-2.18,6.89-7.37,6a181.19,181.19,0,0,0-19.71-1.59c-4.77-.25-7.42-2.15-8.31-6.71-4.35-11-7.81-22.42-17.23-30.52a4.9,4.9,0,0,1-1.77-2.92q-4.46-24.77-9-49.6c1.92-.11,2.76,1.1,3.81,1.8,23.32,15.43,50.14,8.37,62.94-16.61,16-31.24,9.44-73.59-15.25-98.31-26.11-26.14-61.71-18.36-74.76,16.27a86.7,86.7,0,0,0-4,47.18c5.69,31,11.27,61.93,17.17,92.84.87,4.58-.06,7.34-3.84,10-7.3,5.2-7.18,5.41-12.88-1.19-4.24-4.92-8.26-10-12.69-14.78a8.84,8.84,0,0,1-2.33-8.15c1-6.42,2.11-12.82,2-19.36-.3-15.81-7.41-26.5-22.21-32-5.33-2-8-4.65-8.49-10.53a149.85,149.85,0,0,0-3.87-21.61c-.79-3.34.19-5.24,2.51-7.28,5.62-4.94,11.43-9.69,13.06-17.72,2.08-10.25,1.41-20.36-4.38-28.9-6.86-10.12-8.22-19.7-2.2-30.44a39.41,39.41,0,0,0,3.45-9.89c1-3.89,2.85-5.51,6.8-4.1,5.52-.06,10.63,3.58,16.34,1.76-3.72.76-7.18-.33-10.56-1.63-1.28-.49-3-1.15-1.59-3.17C99.25,123.21,106,122,112.7,121c2.9-.45,4.07-2.4,5.07-4.86,3.44-8.4,3.48-17.37,3.27-26.07-.19-7.94,2.51-12.19,9.87-14.63a97.5,97.5,0,0,0,14.93-6.92c3.17-1.69,4.59-.89,6,2.21,2.75,6.06,5.61,12.09,8.93,17.85,7.31,12.7,21.33,15.48,31.58,6.51,3.7-5.78,9.29-10,13.19-15.55a19,19,0,0,1,12.42-8.37,11.31,11.31,0,0,0-9.6,4.56c-4,4.89-8.26,9.53-12.42,14.28-1.59,1.81-3.13,4.46-6.41,3.07-6.64-8-15.44-11.8-25.58-12.89-3.6-.39-10.24-8.92-9.58-12.34.32-1.65,1.64-1.39,2.73-1.45,22.75-1.22,45.51-2.35,68.26-3.68,3.66-.21,3.52,2.91,5.06,4.56,1.24,2.84-1.17,2.93-2.73,3.43l-.5.14c16.94.69,33.81-2,50.77-2.15,3.87,0,7.78-2.31,11.48.61q12.93,9,25.84,17.95c1.28.89,3.41,1.54,2.62,3.66-.61,1.63-2.47,1.39-4,1.51q-30.38,2.47-60.76,4.94c-7.58.6-7.72.5-9,8-1.81,10.78-5.28,21.32-3.9,32.55,1.93,15.7,13.23,26.93,28.46,30.77,17.53,4.41,34.36,1,51.42-1.63,12-1.87,24-3.58,36-5.65,4.56-.79,6.19.73,6.84,5.18,1.81,12.52,3.91,25,6.18,37.45C370,208.1,367.82,208.79,364.73,209.45Zm-23.51,59.47c2.34,3.83,4.62,7.71,7.07,11.47,1.42,2.18,1,3.16-1.5,3.82q-30.09,8.19-60.13,16.54c-2.08.58-3-.11-3.92-1.82-5-9.57-10.08-19.13-15.27-28.62-1.2-2.19-.52-3.18,1.31-4.38,11.17-7.32,17.23-18.19,20.93-30.63.63-2.12,1.07-4,3.79-4.57,18.68-4,37.33-8.1,57-12.39C332.81,232.5,329.84,250.28,341.22,268.92ZM133.51,217.46c.1-7.73,1.44-14.68,4.75-21.21,8.54-16.83,26.14-20.33,40.31-8,16.43,14.3,20.62,43.43,8.88,61.81-10,15.66-30.42,15.38-42.89-.59C137.1,239.93,133.93,228.93,133.51,217.46Z"/><path class="cls-2" d="M225.24,70.76l1.94.08.5-.14c1.56-.51,4-.59,2.73-3.43-1.54-1.66-1.4-4.78-5.06-4.56-22.75,1.33-45.51,2.46-68.26,3.68-1.09.06-2.41-.2-2.73,1.45-.66,3.42,6,11.95,9.58,12.34,10.14,1.09,18.94,4.84,25.58,12.89,3.27,1.39,4.82-1.26,6.41-3.07,4.16-4.74,8.43-9.39,12.42-14.28a11.31,11.31,0,0,1,9.6-4.56A29.36,29.36,0,0,1,225.24,70.76Z"/><path class="cls-2" d="M262.7,344.11c-2.06.91-3.77.15-5.6-.87-6.53-3.65-12.89-7.59-19.49-11.11-4.94-2.64-6-2.41-8.38,2.66A36.38,36.38,0,0,1,214,351.46a14.4,14.4,0,0,0-6.72,9.56q-.14,1.57-.31,3.13a13.55,13.55,0,0,0,.33,2.91c.55,2.41,2,3.74,4.26,2.65,5.1-2.41,10.82-3,15.83-5.55,2-.76,4-1.63,6-2.28q22.94-7.38,45.9-14.69c.77-.6.61-1.46.63-2.27.17-5.68-.33-6.1-5.68-4.41a52,52,0,0,1-7.87,2.6C265.17,343.5,263.94,343.84,262.7,344.11Z"/><path class="cls-1" d="M262.43,345.24c-1.66,1.22-3,1-4.87-.12-7.22-4.42-14.7-8.43-22-12.76-2.49-1.48-3.59-1.18-4.67,1.63-3.43,8.91-9.77,15.28-18.1,19.79-3,1.6-5.9,11.92-4.19,14.61,1.06,1.67,2.38.47,3.52.15,5.11-1.41,10.2-2.9,15.3-4.37-1.19,1.91-3.34,2-5.16,2.64-3.85,1.38-7.74,2.43-11.39,4.54-4.13,2.39-8.91,2.23-13.48.54-.46-.17-1-.59-1.37-.49-6.29,1.55-12.42-1.6-18.68-.59-3.45.56-5.57-2.23-5.85-7.68,1.61,5,5.5,5.86,10.09,6,6.47.24,12.95.72,19.39,1.35,3.29.32,4.34-.89,4.54-4.09.39-6.13,1.08-12.25,1.87-18.34,2.19-16.92,16.46-24.74,31.81-17.37,6,2.87,11.76,6.22,17.7,9.19,1.6.8,2.33,2.26,3.54,3.33C260.88,344.13,263,343.37,262.43,345.24Z"/><path class="cls-1" d="M189.52,93.07c2.36.63,3.21-1.38,4.34-2.65,4.85-5.47,9.67-11,14.36-16.58a9.59,9.59,0,0,1,8.24-3.67c3.64.1,7.29-.34,10.94-.55,1.53-.09,3.1-.15,3-2.34,1.16,2.65,3.25,3.19,6,3,15-1,30-2.08,45-2.88,2.72-.15,6.09-1.61,8.09,1.9-7.27-1.81-14.53,0-21.76.29-16.41.63-32.8,1.95-49.2,2.81a10.93,10.93,0,0,0-8.42,4.1c-5.69,6.37-10.41,13.74-17.71,18.57C191.7,94,189.8,94.66,189.52,93.07Z"/><path class="cls-1" d="M92.53,124.32c3,3.89,7.23,3.63,11.39,3.52,1.6,0,3.15-1.05,5.34,0-7.41,5.87-14.16,1.94-20.92-.47,1.61-.42,1.78-.43,1.69-1.43C89.82,123.6,91.39,124.35,92.53,124.32Z"/><path class="cls-1" d="M262.43,345.24l-2-2c6.49-1,12.37-4.45,19-5,1.48,3,2,6-.15,8.94,0-.17,0-.33,0-.5.49-6.71.52-6.6-5.94-4.62C269.78,343.21,266.35,345.09,262.43,345.24Z"/><path class="cls-1" d="M129.15,337c.53-1.76,2-2.07,2.92-2.89.79-.68,1.57-1.94,2.87-1.15.4.24.55,1.17.54,1.77,0,1.43-1.19,1.82-2.3,2.15S130.7,337.72,129.15,337Z"/></g></g></svg>